/* XPM */
static char *_6c42e8d6cba4ecab7399e55c3038127KIa1qUGvJsEDtxGA[] = {
/* columns rows colors chars-per-pixel */
"32 32 61 1 ",
"  c #265C2F",
". c #285F2F",
"X c #265B30",
"o c #265C30",
"O c #27612E",
"+ c #29672B",
"@ c #29622E",
"# c #2A652D",
"$ c #2A692A",
"% c #2D6B2B",
"& c #2A6C29",
"* c #2C6D29",
"= c #2B682C",
"- c #2C6A2D",
"; c #2C6D2C",
": c #2C7227",
"> c #2D7625",
", c #2E7923",
"< c #2F7F21",
"1 c #2E7926",
"2 c #2E722B",
"3 c #2E702F",
"4 c #2F742F",
"5 c #307527",
"6 c #307B23",
"7 c #307C23",
"8 c #307925",
"9 c #337F27",
"0 c #307328",
"q c #307428",
"w c #30762C",
"e c #307A2B",
"r c #337C28",
"t c #347E29",
"y c #317B2D",
"u c #327C2E",
"i c #296230",
"p c #2A6531",
"a c #317533",
"s c #308220",
"d c #328522",
"f c #328025",
"g c #338526",
"h c #348727",
"j c #338823",
"k c #368B27",
"l c #368D26",
"z c #348029",
"x c #37872B",
"c c #34832C",
"v c #378E28",
"b c #37882D",
"n c #388B2B",
"m c #388D2B",
"M c #388B2E",
"N c #398F2D",
"B c #389028",
"V c #3B952B",
"C c #3B932C",
"Z c #3C972C",
"A c #3D992D",
/* pixels */
"AAk<s5ss0s5ss0s70sZ 0ss002 ZAdqX",
"bk*@0580t557s07q5tt5005t*+tsB1B;",
"O7000000As08s005sAAs00sApsAss@sA",
"s700sC8sss0000000sAA0sAAdAAA0sXs",
"5sBAsdBs0AV70s000Xss0AAAAAsXX*0X",
"s77ss@% 0As8ss0dAZ0 osAo<o s00s0",
"s0#Xs*XXXs5ss005sAAsX0XX*s0A00ss",
"s7000X$s005700s00X00AsXsVAAsXNss",
"s58802cl0059xxs80=08Alu&kyAluk&s",
"55ss0$lA70sCAj5s7705-AA15*jAA;*5",
"08sss*$ssossso0ss00s0so07sosAAoA",
"08sss2$s< s<s 5ss05s0s 5ss <ZAiZ",
"zgss7qr8+>g28tk578ks008sss0@8vBs",
"kw7s0fVlsXykslA80lA88x88s80xss&s",
"<#7s0dAAsX@sssAs0AA0sA00s00AssXs",
" 0000dBsXX*paXsVsAAAAs0000sAAp00",
"78850s70s5szZd <s<Zs ZZs5ss<Zess",
"5sss05700ssssAs.0X00sss0ss0Xss0s",
"dAz0s08s00s70Xs*XX0XAX000AA0XNA0",
"V>:sss8ss05700s.00ssss0AdXsA0sAs",
"f&kVsB7557Cl70V107sVs50=mM#dCBAV",
"5700sAn0sAVssssVs0sss0A0sAAAAdXs",
" %:s0dBsss<#0s0s0s0ssAAs@sA0X<00",
"#=>s81h>7>7wzs860kzs7BA>$sB0@100",
"1*88s:>:#-sBA&s80xll88l:kl&80000",
"ss805stVM@@*e,ss70@ds@5VA=,50070",
"ss800szAAXX#0ssss0XssX0AAXs000s0",
"58xCd5kV<iB155s5sssOqsVd=505s5ss",
"s8-XAzdk3B>eks08s78kA7>BB>07sss7",
"sk4XAVkAAspAAs0ss0sAA0XssX00sss0",
"C$sssVssssV:X00pAAsXsAs0sss00000",
"<X:s0 %X0A<3AsXVsss0ss0000sss50A"
};
