/* XPM */
static char *bf24f78a4a1940d4f01ea3dfea8056e8MrvkrqQmf5ts1UqS[] = {
/* columns rows colors chars-per-pixel */
"32 32 160 2 ",
"   c #2B1B16",
".  c #341F1A",
"X  c #2B2114",
"o  c #34211A",
"O  c #3F3511",
"+  c #271D25",
"@  c #2F2422",
"#  c #3E2E21",
"$  c #3B2828",
"%  c #3F322C",
"&  c #5D2816",
"*  c #5D2F18",
"=  c #423513",
"-  c #43301F",
";  c #703F16",
":  c #402C26",
">  c #442C28",
",  c #473428",
"<  c #4C3C2D",
"1  c #4D3C32",
"2  c #3B5400",
"3  c #275E2F",
"4  c #265B30",
"5  c #29642D",
"6  c #2C6C2B",
"7  c #2C7326",
"8  c #2F7C23",
"9  c #2F722E",
"0  c #307627",
"q  c #307B24",
"w  c #307328",
"e  c #337D2A",
"r  c #296430",
"t  c #445801",
"y  c #654316",
"u  c #466009",
"i  c #49610D",
"p  c #647D01",
"a  c #4D412C",
"s  c #513241",
"d  c #5E4D41",
"f  c #6B5649",
"g  c #796254",
"h  c #806A55",
"j  c #847C69",
"k  c #308220",
"l  c #358A26",
"z  c #35822A",
"x  c #378B2B",
"c  c #398F2D",
"v  c #3A942B",
"b  c #3D992D",
"n  c #5E8C06",
"m  c #658603",
"M  c #658C03",
"N  c #6B8C06",
"B  c #64830B",
"V  c #628F0A",
"C  c #6B8C0B",
"Z  c #728704",
"A  c #728C05",
"S  c #66910E",
"D  c #6F900B",
"F  c #759A05",
"G  c #779A09",
"H  c #7B9D0C",
"J  c #6C8B11",
"K  c #769F13",
"L  c #7B9E12",
"P  c #7D9D1A",
"I  c #76A302",
"U  c #7BA300",
"Y  c #7DA10D",
"T  c #7EA212",
"R  c #7CA817",
"E  c #7FA01B",
"W  c #7EA528",
"Q  c #809D11",
"!  c #899D17",
"~  c #829518",
"^  c #819F19",
"/  c #82A307",
"(  c #82A60F",
")  c #83A80D",
"_  c #82A314",
"`  c #83A51B",
"'  c #8FA41B",
"]  c #85AA1A",
"[  c #96BF18",
"{  c #99BF1E",
"}  c #89AB20",
"|  c #A2BE2D",
" . c #99C309",
".. c #9BC217",
"X. c #9ECA13",
"o. c #9DC51C",
"O. c #94CF1F",
"+. c #9BCA1B",
"@. c #A3CD13",
"#. c #A3C61C",
"$. c #A3CA1E",
"%. c #A2D111",
"&. c #A3D21D",
"*. c #ADD71D",
"=. c #B6D21D",
"-. c #B9DB1D",
";. c #9EC522",
":. c #9EC923",
">. c #9EC42A",
",. c #9CCB2A",
"<. c #9DD12A",
"1. c #A1C723",
"2. c #A2CA23",
"3. c #A9CD25",
"4. c #A2C62A",
"5. c #A4CA2A",
"6. c #A9CF2C",
"7. c #A5D124",
"8. c #ACD225",
"9. c #A8DC23",
"0. c #ACD42C",
"q. c #AFD92B",
"w. c #B0D72E",
"e. c #B1D92C",
"r. c #A0C633",
"t. c #A1C934",
"y. c #AED431",
"u. c #ADD439",
"i. c #B3D234",
"p. c #B5DB36",
"a. c #BDE92E",
"s. c #BCEA37",
"d. c #BEE53E",
"f. c #BDEC3C",
"g. c #BFF53B",
"h. c #D8EF2F",
"j. c #C2ED37",
"k. c #C2E738",
"l. c #C2EB3C",
"z. c #C2EA3D",
"x. c #DEE93C",
"c. c #C1F236",
"v. c #C3F03D",
"b. c #C8F93B",
"n. c #8A8367",
"m. c #898071",
"M. c #BAE941",
"N. c #C3E641",
"B. c #C3ED41",
"V. c #CAEE44",
"C. c #C5F240",
"Z. c #DAE4D9",
"A. c #E5E2D3",
"S. c #E5DEFF",
"D. c #DDE2E8",
"F. c #E5E3E6",
"G. c #E3E2F2",
"H. c #E9F3F4",
"J. c #F0FAFC",
"K. c #FCFCFC",
/* pixels */
"b b l 8 k 0 k k w k 0 k ] Q _ H Y ` 2.+.w k k w w 9 3 b b k 0 4 ",
"x 1.6 5 w 0 q w e T T _ _ 4.G ;.#.] 2.$.:.:.:.e 6 5 e k v 8 d.6 ",
"u.N 3.w w w w w b L L ;.1.] #.} 1.2.;.2.;.1.1.4.r k b k k d.N _ ",
"u.N <.w k v q k ~ o.4.Y o.2.L ;.0.0.T w.0.o.1.:.k b b b w d.N _ ",
"u.( u.x.k k v k H ] ..1.2.1.o.y.z.0.z.s.0.0.;.:.<.b k 4 d.+.<.4 ",
"k q 9.M.h.5 6 K 2.>.;.] ;.,.,.#.3.f.v.v.v.s.s - = 4 3 k.,._ k w ",
"k w 5 i.f.x...Y L $ # 1 < < X  .2.s.v.v.  O : , d   < | L w k k ",
"k q w w ,.i._ 2.H o X . : > a % % -.z.V.a + -.$.$.#.=.I 4 c k k ",
"k 0 q q w &.5.P _ @ / T T T _ ^ @.,.0.c.0.*.5./ 2.2.O.l e l 6 k ",
"0 0 k k w _ T C L T T T T _ T T T ;.1.y.E T T T T Y :.b b 6 6 0 ",
"w q k k k A C _ T P ) G F G U P T Y 0.p.Y Y T F 1.Y ;.k b b 4 b ",
"w q k k k J Y C _ &.@.F.D.A.7.o.T 1.y.3.1.t.H.Z.U y.k.8 b b r b ",
"z k k k p ' T 2.;.2.J.* ; K.G.y.1.2.y.4.R K.& y S.j.v.N.q x v k ",
"l w q k Z ! ;.2.;.8.a.e.g...;.4.Y 1.1.o.#.%.` b.v.v.k.0.k k 6 k ",
"8 5 q k V M T 6.B.v.v.e.z.2.2._ G 5.2.Y 1.2.y.v.v.v.7.5.k k 4 k ",
"3 w w w n R 5.2.;.v.v.z.0.2.T ] 1.y.y.6.T T 2.8.e.z.B.2.b r w w ",
"q q q 0 n R 5.2.;.v.v.z.0.2.T ] y.y.y.y.T T 2.8.e.z.B.2.b e k k ",
"0 k k k V T Y 4.1.f.q.d.0.L ` o.y.v.v.y.y.H 2.0.d.0.2.2.k k w k ",
"k b z w S M P ( ;.z.f.w.2.T C 1.v.v.v.v.y.L Y 4.1.1.2.2.4 c b w ",
"v 7 7 k C _ _ 1.2.0.1.2.1.T m T ` v.v.C.` m Y ;.H 2.;.b w k b k ",
"k 6 l v C ` D L 1.3.1._ 2.1.4.u i L F t 2 #.2.2.L 2.:.k v v b v ",
"0 q w w C N T 1.2.2.W 3.[ 2.#.r.2.2.:.2.1.1.$.3.1.1.2.b b k 4 k ",
"3 6 7 k N C T _ 2.2.2.[ $.[ 2.2.h h h h 1.1.,.1.1.2.2.w 4 8 w w ",
"5 6 7 k C C D C Y >.P [ [ $.$.m.d d f f g :.,.1.3.5.p w 5 8 w w ",
"8 6 q q k C C ` C 2.Y >.+.[ $.m.d d d f g ,.:.3.3.#.C q w w w w ",
"k k q w 0 / C C J L ` X.;.1.1.9.j m.n.n.$.5.:.1.1.J C 0 w w q w ",
"k k q w w k C C H 2.2.] ;.2.w.e.0.0.+.;.:.:.:.:.{ D k w w w k w ",
"0 q z v k 0 l N C T 5.2.1.8.z.k.f.7.f.q.:.:.:.1.C 0 w 0 k 0 k k ",
"k q 6 4 b z k l 9 ` _ 1.1.a.z.j.j.j.j.y.;.1.2.1.C 7 w q k k k q ",
"k l 9 4 b v l b b C M 4.;.1.B.f.j.j.j.z.0.o.1.1.k 4 w w k k k w ",
"v 6 k k k v k k k k C m y.#.0.z.j.j.0.y.C C J N k k k w w w w w ",
"8 4 7 k w 3 6 4 w b 8 9 B J C J J J C B C k w w w w k k k 0 w b "
};
