/* XPM */
static char *e92a684dd21f4d81a84ee692759c55322TC0v2G30AyrLurR[] = {
/* columns rows colors chars-per-pixel */
"32 32 147 2 ",
"   c #0C0504",
".  c #180704",
"X  c #120907",
"o  c #1E0805",
"O  c #110E0D",
"+  c #180D09",
"@  c #1D1009",
"#  c #240A06",
"$  c #26140E",
"%  c #2D130C",
"&  c #32160F",
"*  c #251912",
"=  c #2E1E13",
"-  c #221D19",
";  c #321610",
":  c #362315",
">  c #342419",
",  c #3B241C",
"<  c #36281C",
"1  c #3A2B1D",
"2  c #302725",
"3  c #382B20",
"4  c #442419",
"5  c #4B231E",
"6  c #442B1E",
"7  c #482E1E",
"8  c #402E20",
"9  c #413124",
"0  c #4A3223",
"q  c #543724",
"w  c #523826",
"e  c #523B29",
"r  c #583C29",
"t  c #6A3732",
"y  c #753F39",
"u  c #275D2F",
"i  c #265B30",
"p  c #27612E",
"a  c #29642D",
"s  c #2C6C2B",
"d  c #2D7426",
"f  c #2F7C23",
"g  c #2E712C",
"h  c #307627",
"j  c #307B24",
"k  c #307328",
"l  c #337C2A",
"z  c #296430",
"x  c #5C422E",
"c  c #564233",
"v  c #5C4635",
"b  c #62422C",
"n  c #604632",
"m  c #684B34",
"M  c #634E3D",
"N  c #704E32",
"B  c #74543B",
"V  c #785538",
"C  c #79593E",
"Z  c #534C44",
"A  c #5F524B",
"S  c #615042",
"D  c #6A584B",
"F  c #7E5D43",
"G  c #705C4B",
"H  c #7E614B",
"J  c #875E3F",
"K  c #8F4D48",
"L  c #825F44",
"P  c #9A554F",
"I  c #866347",
"U  c #886347",
"Y  c #84644B",
"T  c #8D6A4E",
"R  c #936C4E",
"E  c #8F6E54",
"W  c #976F51",
"Q  c #8E735C",
"!  c #947055",
"~  c #92745D",
"^  c #99755A",
"/  c #9E785B",
"(  c #AF615C",
")  c #A37B5D",
"_  c #9F7D63",
"`  c #B76762",
"'  c #B46A62",
"]  c #BC6C66",
"[  c #C1716B",
"{  c #C67671",
"}  c #C37B72",
"|  c #CC7A75",
" . c #D07D77",
".. c #308220",
"X. c #358B26",
"o. c #35832A",
"O. c #378B2B",
"+. c #388D2D",
"@. c #3A942B",
"#. c #3D992D",
"$. c #9C8C7A",
"%. c #A48165",
"&. c #AA8263",
"*. c #A0836C",
"=. c #AB876A",
"-. c #AE896C",
";. c #B38867",
":. c #B1846B",
">. c #B58C6D",
",. c #AA8C74",
"<. c #BC8672",
"1. c #B38E71",
"2. c #B39176",
"3. c #BC9475",
"4. c #B3947B",
"5. c #B9967A",
"6. c #BC9A7D",
"7. c #C19C7D",
"8. c #B69B83",
"9. c #BE9E82",
"0. c #D68681",
"q. c #C29F81",
"w. c #CBA485",
"e. c #C5A589",
"r. c #C9A78A",
"t. c #C7A88C",
"y. c #CEAC8E",
"u. c #CEAE92",
"i. c #CDB095",
"p. c #CCB29B",
"a. c #CAB29D",
"s. c #D3B295",
"d. c #D7B496",
"f. c #D3B69B",
"g. c #C6B2A0",
"h. c #C6B5AA",
"j. c #D6BBA2",
"k. c #D3BDA8",
"l. c #C3BCB8",
"z. c #DEC0A4",
"x. c #DEC5AB",
"c. c #D7C3B0",
"v. c #DAC8B7",
"b. c #E4CDB6",
"n. c #E5D1BD",
"m. c #E8D3BF",
"M. c #EADAC9",
/* pixels */
"#.#.X.f ..h ....k ..h ....k ..j k ..#.u k ....v A d u #.#...k i ",
"O.X.s a k h j k l h h j ..k j k h l l h k k M < s a l ..@.f @.s ",
"p j k q e k k k #...k j ..k k h ..#.#...S v 1 = z ..#.....a ..#.",
"..j k e Y r M ......k k k k k k k ..#.D 1 3 < * ..#.#.#.k ..i ..",
"h ..@.#.x V F e k #.@.j k ..k k k i ..> > > @ #.#.#...i i s k i ",
"..j j ....6 B F x #...j ....k ..#.l.c v 7 X #.i f i u ..k k ..k ",
"..k a i ..s e b C F 6 , > & k h ..c 8 7 @ k i i s ..k #.k k ....",
"..j k k k i e b C F 6 , > & ; ; k c 8 7 @ ..i ..@.#.#...i +.....",
"..h j j k d o.w x B w # % 0 x x Y < w : #.X.l s X.l #.X.l X.s ..",
"h h ....k s X.#.j n w w ~ 9 E E ! -.2 2 s #.#.f h s X.#.#.s s h ",
"k j ......s s ....i ~ ~ $ q # # $ ! 2 ..k ..i k j ..i ..#.#.i #.",
"k j ......d s ..f u $ $ ) &.F M.M.0 ^ ..k ..u h ....u f #.#.z #.",
"o.......j k l j a d U M.M.;.3.+ M.y ) 7.k k j ......k a j O.@...",
"X.k j ..k ..@.X...i C M.+ / 3.3.&.7.>.7.7.o.j j ..j k o.....s ..",
"f a j ..k ..#.#...i Z g.,.Y 6.6.-.7.=.4.3.#.k k ..k k #.....i ..",
"u k k k k ..@...i i k.k.k.k.k.k.5.5.-.-.-...k k k k ..#.#.z k k ",
"j j j h k ..j k ..v.v.v.k.d.z.k.k.s.e.i.2.#.#...h ....f #.l ....",
"h ......k h j k k p.p.p.w.. :.. m.k.k.k.! ....k ....k i ....k ..",
"..#.o.k ..k j ..k ~ ,.4.5.r.y.y.f.n.c.k.T i k k k #.#.k i +.#.k ",
"@.d d ......j ....~ ,.6.6.6.q.q.j.k.k.k.^ ..k #...i ..#.k ..#...",
"..s X.@...@.j h h ~ ,.,.6.6.y.y.e.1./ o s.h k s +.+.a ..@.@.#.@.",
"h j k k ..#.O.k ..~ ~ / / / / / / / o G u.&.#.k ..#.#.#.#...i ..",
"u s d ..k ..@.......N J b o o o o o K ~ <.T #...a ..#.k i f k k ",
"a s d ..j f X.d j d m 4 0 $.8.8.a.o { t.:.%.#.d s ..@.k a f k k ",
"f s j j ..d d d a s m 4 0 $.8.8.a.o { t.:.%.X.d X.X.s j k k k k ",
"....j k h ..l @.+.a a s H x.b.b.o [  .} 7.1.B @.#.s f h k k j k ",
"....j k k ..o.#.#.i i a -.9.-.-.o | 0.0.:._ I #.#.i ..k k k ..k ",
"h j o.@...h X.@.f z @.f h.      o ` | | [ ! F %.s h k h ..h ....",
"..j s i #.o...X.g @.d l X.M O O 9 5 ] | | B ! ! %./ k j ......j ",
"..X.g i #.@.X.#.#...z #.#...Q =.*.- P | | ' / =.^ =.%.k ......k ",
"@.s ......@.........@.d i k Q =.=.=.R ( | P / ;.>.^ U W k k k k ",
"f i d ..k u s i k #.f g #...Q Q =.Q   t ` &.Y _ ) ) L T ^ h k #."
};
