/* XPM */
static char *result[] = {
/* columns rows colors chars-per-pixel */
"32 32 132 2 ",
"   c black",
".  c #265C2F",
"X  c #275D2F",
"o  c #275E2F",
"O  c #275F2F",
"+  c #265B30",
"@  c #265C30",
"#  c #275D30",
"$  c #27612E",
"%  c #29672B",
"&  c #28612D",
"*  c #29632D",
"=  c #28602E",
"-  c #29622E",
";  c #28642C",
":  c #2A642D",
">  c #2A652D",
",  c #2A692A",
"<  c #2A6A2A",
"1  c #2A6A2B",
"2  c #2C6A2B",
"3  c #2D6B2B",
"4  c #2B6D28",
"5  c #2A6C29",
"6  c #2B6D29",
"7  c #2C6D29",
"8  c #2D6F29",
"9  c #2E6F29",
"0  c #2F6F29",
"q  c #2E6D2A",
"w  c #2B682C",
"e  c #2C6A2D",
"r  c #2C6D2C",
"t  c #2D6D2F",
"y  c #2C7227",
"u  c #2D7525",
"i  c #2E7625",
"p  c #2C7426",
"a  c #2E7923",
"s  c #2F7E21",
"d  c #2F7F21",
"f  c #2E7C22",
"g  c #2F7C22",
"h  c #2F7E22",
"j  c #2F7924",
"k  c #2F7925",
"l  c #2F7B25",
"z  c #2E7926",
"x  c #2C7128",
"c  c #2F7029",
"v  c #2F7129",
"b  c #2F742F",
"n  c #307427",
"m  c #307527",
"M  c #307626",
"N  c #307726",
"B  c #307F21",
"V  c #307C23",
"C  c #307D23",
"Z  c #307E22",
"A  c #307F22",
"S  c #307825",
"D  c #307925",
"F  c #307A24",
"G  c #307B24",
"H  c #327B27",
"J  c #307228",
"K  c #307328",
"L  c #307428",
"P  c #317528",
"I  c #317628",
"U  c #30762C",
"Y  c #327A28",
"T  c #337C28",
"R  c #347E29",
"E  c #347F29",
"W  c #31782F",
"Q  c #327C2E",
"!  c #286130",
"~  c #2A6530",
"^  c #54493F",
"/  c #706255",
"(  c #796C5E",
")  c #877B6C",
"_  c #887B6D",
"`  c #308120",
"'  c #308021",
"]  c #308121",
"[  c #308220",
"{  c #308320",
"}  c #318521",
"|  c #328522",
" . c #328622",
".. c #338723",
"X. c #328025",
"o. c #318224",
"O. c #338524",
"+. c #348727",
"@. c #338823",
"#. c #348924",
"$. c #358A25",
"%. c #348926",
"&. c #358927",
"*. c #358A27",
"=. c #368B27",
"-. c #378E27",
";. c #348028",
":. c #348029",
">. c #35812A",
",. c #35822A",
"<. c #36852B",
"1. c #37872B",
"2. c #34832C",
"3. c #378E28",
"4. c #37882D",
"5. c #388B2B",
"6. c #398F2D",
"7. c #389028",
"8. c #399129",
"9. c #399229",
"0. c #3A932A",
"q. c #3A942A",
"w. c #3B952B",
"e. c #3B962B",
"r. c #3A902C",
"t. c #3A902D",
"y. c #3B932C",
"u. c #3A922D",
"i. c #3C972C",
"p. c #3C962D",
"a. c #3D982D",
"s. c #3D992D",
/* pixels */
"s.a.%.d ] m ` ] K ] m [ [ K [ A K ] p.X K ] ) ) ) v X i.s.| I + ",
"4.=.7 - K m F K R N m B [ K Z L N ) ) ) ) ) ^ ^ ^ % R [ 9.l 9.t ",
"$ V K K K K K K s.[ K ) ) ) ) ) ) ^ ^ ^ ^ ^ / / ^ [ s.[ [ & [ s.",
"[ V K K [ y.D ) ) ) ) ^ ^ ^ ^ ^ ^ / / / / / / / / s.s.s.K ' + [ ",
"m [ 7.s.[ | 7.[ ^ ^ ^ / / / / / / / / / / / / / / s.[ + + 9 K + ",
"` C V { [ = 3 . / / / ^ ^ ^ ^ ^ ^ ^ ^ ^ ^ ^ ^ / / # . ` J K ` J ",
"' K > + [ 0 + + / / ^ / ( / ( / / / ( / / / ^ / / [ K s.K K [ [ ",
"[ V K K K + , [ / / ^ / ( / ( / / / ( / / / / ^ / s.s.[ + 6.[ [ ",
"] N S G K x 2.-./ / ^ / ( / / ( / / / ( / / ( ^ / W s.-.Q *.4 [ ",
"M N ' [ K 1 -.s./ / ^ / ( / / ( / / / ( / / ( ^ / q @.s.s.r q N ",
"K S [ [ [ 9 < [ / ^ ^ / ( / ( /     / ( / / ( ^ / [ @ [ s.a.@ a.",
"K D [ [ [ c < ] / ^ / / ( / (     /   / ( / / ^ / [ X s p.a.! i.",
":.O.' [ C P T S / ^ / ( / /     / / / / ( / / ^ / [ K * S 3.9.[ ",
"&.U V [ K X.w.-./ ^ / ( / /     / / / / ( / / _ _ F K 1.[ [ 6 [ ",
"g : V [ K | s.s./ ^ / / ( / /     /   / ( / / ^ / K K s.[ [ + [ ",
"o K K K K | 7.[ / ^ / / ( / ( /     / / ( / / ^ / K [ s.s.~ K K ",
"A D F n K ] V K / ^ / / ( / ( / / ( / / ( / / ^ / [ ' h i.Y ' [ ",
"m [ [ [ K m V K / ^ / / ( / ( / / ( / / ( / / ^ / [ K + [ [ K [ ",
"| s.,.K [ K D [ / ^ / / ( / ( / / ( / / ( / / ^ ^ / s.K + 6.s.K ",
"e.p y [ [ ' D / ^ ( / _ ( / ( / / ( / / ( / / ( ^ / [ s.K ' s.[ ",
"o.5 &.q.[ 8.V / ^ ( / _ ( / ( / / ( / / ( / / ( ^ / ; ..r.0.s.q.",
"m V K K [ s.5./ ^ ( / _ ( / ( / / ( / / ( / / ( ^ / s.s.s. .+ [ ",
"o 2 y [ K | 7./ ^ ( / / ( / ( / / ( / / ( / / ( ^ / s.K + f K K ",
": w u [ S z +./ ^ ( / ( / ( / / / ( / ( / / / ( ^ / 8.K * j K K ",
"k 8 F F [ y i / ^ / / ( / ( / / / ( / ( / / / ( ^ / 5 G K K K K ",
"` ' D K M ' E / ^ / / ( / ( / / / ( / ( / / / ( _ _ a M K K A K ",
"[ [ D K K ' >./ ^ / / ( / ( / / / ( / ( / / ( / ^ / [ K K K [ K ",
"M G <.u.} m #./ ^ / / ( / / ( / / ( / ( / / ( / ^ / K m [ N [ [ ",
"' H e + s.;.| / ^ / / ( / / ( / / ( / ( / / ( / ^ / K C [ [ [ C ",
"[ $.b + s.e.$./ ^ / / ( / / ( / / ( / ( / / ( / ^ / K K [ [ [ K ",
"t., [ [ [ e.[ / ^ / / ( / / ( / ^ ( / ( / / ( / ^ / [ K K K K K ",
"g + y [ K O 2 / ^ / / ^ ^ ^ ^ / ^ ^ ^ ^ / / ^ ^ ^ / [ [ [ m K s."
};
