/* XPM */
static char *_8aa89f961a94908bfbc1e43059d6c86viEsElE5k6EQkvNG[] = {
/* columns rows colors chars-per-pixel */
"32 32 100 2 ",
"   c #030000",
".  c #080400",
"X  c #160D05",
"o  c #161207",
"O  c #1B1306",
"+  c #1F1A06",
"@  c #161009",
"#  c #1D150B",
"$  c #1E190D",
"%  c #1E1510",
"&  c #1E1D1B",
"*  c #20170C",
"=  c #231A0D",
"-  c #2A1B0C",
";  c #341E0C",
":  c #391E0B",
">  c #241C11",
",  c #291E11",
"<  c #351F11",
"1  c #25200D",
"2  c #2B200E",
"3  c #34210C",
"4  c #3A240E",
"5  c #272112",
"6  c #2C2314",
"7  c #2C2A15",
"8  c #2D2419",
"9  c #2F2818",
"0  c #322515",
"q  c #3C2511",
"w  c #342916",
"e  c #3D2A13",
"r  c #312619",
"t  c #332A1B",
"y  c #3A2E1C",
"u  c #3D311B",
"i  c #2D2920",
"p  c #332C23",
"a  c #373026",
"s  c #3C3323",
"d  c #3C372C",
"f  c #3F3B32",
"g  c #41270E",
"h  c #41290D",
"j  c #412713",
"k  c #442C15",
"l  c #492E16",
"z  c #432D19",
"x  c #492E19",
"c  c #443016",
"v  c #4C3116",
"b  c #43321C",
"n  c #46341C",
"m  c #4A311B",
"M  c #48321B",
"N  c #4C3219",
"B  c #493419",
"V  c #4C331D",
"C  c #413320",
"Z  c #413421",
"A  c #4D3C20",
"S  c #413829",
"D  c #275D2F",
"F  c #275E2F",
"G  c #265B30",
"H  c #27612E",
"J  c #29672B",
"K  c #29622E",
"L  c #2A642D",
"P  c #2B6A2B",
"I  c #2C6D29",
"U  c #2D6D2F",
"Y  c #2C7326",
"T  c #2F7F21",
"R  c #2F7B25",
"E  c #2F7129",
"W  c #2F722F",
"Q  c #307527",
"!  c #307C23",
"~  c #307925",
"^  c #307328",
"/  c #317628",
"(  c #347E29",
")  c #2A6530",
"_  c #464237",
"`  c #494134",
"'  c #44413A",
"]  c #534C42",
"[  c #5B5444",
"{  c #308121",
"}  c #308220",
"|  c #328522",
" . c #368B27",
".. c #348029",
"X. c #35832A",
"o. c #37882D",
"O. c #389028",
"+. c #3B932C",
"@. c #3C972C",
"#. c #3D992D",
/* pixels */
"#.#. .T } Q } } ^ } Q } } ^ } d t } @.F ^ } } ^ ^ E F @.#.| / G ",
"o. .I K ^ Q ~ ^ ( Q Q ! } a b c m m r Q ^ ^ Q ( I J ( } O.R O.U ",
"H ! ^ ^ ^ ^ ^ ^ #.} ^ p y k k ; - k l z s ^ } #.) } #.} } K } #.",
"} ! ^ ^ } +.~ } } ] b l l 4 j v m q ; k V 0 [ #.| #.#.#.^ } F } ",
"Q } O.#.} | p p 0 x k 4 q z k k k h v e : l A b b ` } G G I ^ G ",
"} ! ! } ] n e e z 4 e m l k ; ; 4 4 k l k q 4 e e k q _ ^ ^ } ^ ",
"} ^ # b B k q q g l l z 4 ; k k k k q q l k x j j e x l y X } } ",
"} 5 3 k l 3 q q l l x q q k e q q k l 4 ; l l l l q ; l l e 1 } ",
"} 8 w y z l k k : q V l k ; 4 k k 4 q k l k q ; ; e j 3 y 5 # } ",
"Q 9 s 6 9 5 - - c x ; q x k k j q j l x e q e m m y y 6 $ , $ Q ",
"^ t = - 6 * 0 w e k c k ; k l l l x k 3 k z x Z Z O = 6 # = # #.",
"^ t 6 = 9 * y y 6 0 5 y e z ; 4 z q k b , y = > > o > # $ = # @.",
"..y 9 5 9 * y y , 0 $ 0 b 2 N k l l w , o 6 # = $ o $ # $ = + } ",
" .w 5 = 9 = w w , 0 # 0 9 7 u y < 6 > > o 0 # > > # > # = # * } ",
"T , = 6 0 $ 9 9 = 6 * 6 w 6 9 = = o 6 = o 9 @ = = # = $ $ # * } ",
"F , = 9 w * 9 9 , y = r = 8 9 = = $ = = # = % 9 9 # , $ $ # * ^ ",
"! 6 = 8 w = , , = Z , 0 * 6 9 = , @ $ * # > $ 8 8 * = = = $ = } ",
"Q 8 = p w 6 , , 6 b > r = 5 w = , X = = o $ $ 6 6 > 5 $ > = , } ",
"| 9 = y 0 0 = = w r 0 0 = = y 6 6 # > , # # > > > = , o , * $ ^ ",
"@.9 6 y 6 0 = = y 0 0 y r = y 6 , = $ , = $ , > > $ , o , * $ } ",
"} t 6 0 0 , * * 9 6 = w = = y 6 , > # , > $ > > > $ > o 6 > > @.",
"Q S 6 0 9 = r r 6 6 = w = , y 6 * > # > > $ > > > $ = o 8 > > } ",
"F s 5 6 w , 9 9 * 6 = w 5 5 y 6 $ * o , > * @ > , > > X > > > ^ ",
"L t = 9 w = w w * C , 6 5 0 2 9 > $ # , $ $ o r w $ > # > > > ^ ",
"R w = w 0 0 9 9 * C 8 5 2 0 # 8 > > = , # $ X w w # = # $ 6 # ^ ",
"} } . 6 6 r 0 0 = y , 6 , 0 + 5 > > > , # , o , , # = $ +   ! ^ ",
"} } ~ ^ d w w w * w , 6 = 0 * 9 > $ > , = > # > > $ = p ^ ^ } ^ ",
"Q ~ ..+.| Q ' ' + 6 > r = 6 - 6 8 # # , > , O $ $ & ^ Q } Q } } ",
"} ~ P G #...|  .W _ + 5 * w 0 0 r $ = , * 5 f O.O.Y ^ ! } } } ! ",
"}  .W G #.@. .#.#.} ) t 6 w r r 8 $ = $ @ ^ G } } G ^ ^ } } } ^ ",
"+.P } } } @.} } } } @.Y G f 6 6 = $ # G } #.} ^ ! } } ^ ^ ^ ^ ^ ",
"T G Y } ^ F P G ^ #.T W #.} G i f } } ^ } } ^ ^ ^ ^ } } } Q ^ #."
};
